<svg xmlns="http://www.w3.org/2000/svg" viewBox="0 0 512 512" width="100%" height="100%">
  <rect width="512" height="512" rx="128" fill="#0B1120"/>
  <defs>
    <radialGradient id="glow" cx="50%" cy="50%" r="50%">
      <stop offset="0%" stop-color="#3B82F6" stop-opacity="0.3"/>
      <stop offset="100%" stop-color="#3B82F6" stop-opacity="0"/>
    </radialGradient>
    <linearGradient id="shield-grad" x1="0%" y1="0%" x2="100%" y2="100%">
      <stop offset="0%" stop-color="#3B82F6"/>
      <stop offset="100%" stop-color="#1D4ED8"/>
    </linearGradient>
  </defs>
  <circle cx="256" cy="256" r="200" fill="url(#glow)"/>
  
  <path d="M256 90 L380 135 V260 C380 345 325 410 256 435 C187 410 132 345 132 260 V135 L256 90 Z" fill="url(#shield-grad)" stroke="#2563EB" stroke-width="8"/>
  
  <g transform="translate(196, 176)">
    <path d="M10 0 H90 L110 20 V110 C110 115 105 120 100 120 H10 C5 120 0 115 0 110 V10 C0 5 5 0 10 0 Z" fill="#F8FAFC"/>
    <path d="M90 0 V20 H110 Z" fill="#E2E8F0"/>
    <line x1="20" y1="40" x2="90" y2="40" stroke="#94A3B8" stroke-width="6" stroke-linecap="round"/>
    <line x1="20" y1="65" x2="90" y2="65" stroke="#94A3B8" stroke-width="6" stroke-linecap="round"/>
    <line x1="20" y1="90" x2="65" y2="90" stroke="#94A3B8" stroke-width="6" stroke-linecap="round"/>
    <path d="M20 20 H30 M25 15 V25" stroke="#3B82F6" stroke-width="4" stroke-linecap="round"/>
  </g>
</svg>
